<mxfile host="app.diagrams.net" agent="Mozilla/5.0 (Windows NT 10.0; Win64; x64; rv:138.0) Gecko/20100101 Firefox/138.0" version="27.0.4">
  <diagram name="Страница — 1" id="9Gd3q6FHtaVpnI1uI7lh">
    <mxGraphModel dx="1426" dy="828" grid="1" gridSize="10" guides="1" tooltips="1" connect="1" arrows="1" fold="1" page="1" pageScale="1" pageWidth="827" pageHeight="1169" math="0" shadow="0">
      <root>
        <mxCell id="0" />
        <mxCell id="1" parent="0" />
        <mxCell id="jivDJLLt252KBazCutkm-3" style="edgeStyle=orthogonalEdgeStyle;rounded=0;orthogonalLoop=1;jettySize=auto;html=1;" edge="1" parent="1" source="jivDJLLt252KBazCutkm-2">
          <mxGeometry relative="1" as="geometry">
            <mxPoint x="414" y="200" as="targetPoint" />
          </mxGeometry>
        </mxCell>
        <mxCell id="jivDJLLt252KBazCutkm-2" value="Start" style="ellipse;whiteSpace=wrap;html=1;" vertex="1" parent="1">
          <mxGeometry x="317" y="10" width="194" height="120" as="geometry" />
        </mxCell>
        <mxCell id="jivDJLLt252KBazCutkm-5" style="edgeStyle=orthogonalEdgeStyle;rounded=0;orthogonalLoop=1;jettySize=auto;html=1;" edge="1" parent="1" source="jivDJLLt252KBazCutkm-4">
          <mxGeometry relative="1" as="geometry">
            <mxPoint x="414" y="320" as="targetPoint" />
          </mxGeometry>
        </mxCell>
        <mxCell id="jivDJLLt252KBazCutkm-4" value="получить массив" style="rounded=1;whiteSpace=wrap;html=1;" vertex="1" parent="1">
          <mxGeometry x="354" y="200" width="120" height="60" as="geometry" />
        </mxCell>
        <mxCell id="jivDJLLt252KBazCutkm-7" style="edgeStyle=orthogonalEdgeStyle;rounded=0;orthogonalLoop=1;jettySize=auto;html=1;" edge="1" parent="1" source="jivDJLLt252KBazCutkm-6">
          <mxGeometry relative="1" as="geometry">
            <mxPoint x="414" y="440" as="targetPoint" />
          </mxGeometry>
        </mxCell>
        <mxCell id="jivDJLLt252KBazCutkm-6" value="создать пустой массив для реультата" style="rounded=1;whiteSpace=wrap;html=1;" vertex="1" parent="1">
          <mxGeometry x="354" y="320" width="120" height="60" as="geometry" />
        </mxCell>
        <mxCell id="jivDJLLt252KBazCutkm-9" style="edgeStyle=orthogonalEdgeStyle;rounded=0;orthogonalLoop=1;jettySize=auto;html=1;" edge="1" parent="1" source="jivDJLLt252KBazCutkm-8">
          <mxGeometry relative="1" as="geometry">
            <mxPoint x="414" y="550" as="targetPoint" />
          </mxGeometry>
        </mxCell>
        <mxCell id="jivDJLLt252KBazCutkm-8" value="для каждо строки в массиве" style="rounded=1;whiteSpace=wrap;html=1;" vertex="1" parent="1">
          <mxGeometry x="354" y="440" width="120" height="60" as="geometry" />
        </mxCell>
        <mxCell id="jivDJLLt252KBazCutkm-12" style="edgeStyle=orthogonalEdgeStyle;rounded=0;orthogonalLoop=1;jettySize=auto;html=1;exitX=0;exitY=1;exitDx=0;exitDy=0;" edge="1" parent="1" source="jivDJLLt252KBazCutkm-11">
          <mxGeometry relative="1" as="geometry">
            <mxPoint x="340" y="680" as="targetPoint" />
          </mxGeometry>
        </mxCell>
        <mxCell id="jivDJLLt252KBazCutkm-13" style="edgeStyle=orthogonalEdgeStyle;rounded=0;orthogonalLoop=1;jettySize=auto;html=1;exitX=1;exitY=1;exitDx=0;exitDy=0;" edge="1" parent="1" source="jivDJLLt252KBazCutkm-11">
          <mxGeometry relative="1" as="geometry">
            <mxPoint x="490" y="680" as="targetPoint" />
          </mxGeometry>
        </mxCell>
        <mxCell id="jivDJLLt252KBazCutkm-11" value="&lt;div&gt;Длина строки ≤ 3?&lt;/div&gt;" style="rhombus;whiteSpace=wrap;html=1;" vertex="1" parent="1">
          <mxGeometry x="366" y="550" width="96" height="100" as="geometry" />
        </mxCell>
        <mxCell id="jivDJLLt252KBazCutkm-19" style="edgeStyle=orthogonalEdgeStyle;rounded=0;orthogonalLoop=1;jettySize=auto;html=1;" edge="1" parent="1" source="jivDJLLt252KBazCutkm-15" target="jivDJLLt252KBazCutkm-20">
          <mxGeometry relative="1" as="geometry">
            <mxPoint x="490" y="790" as="targetPoint" />
          </mxGeometry>
        </mxCell>
        <mxCell id="jivDJLLt252KBazCutkm-15" value="Нет" style="rounded=1;whiteSpace=wrap;html=1;" vertex="1" parent="1">
          <mxGeometry x="430" y="680" width="120" height="60" as="geometry" />
        </mxCell>
        <mxCell id="jivDJLLt252KBazCutkm-17" style="edgeStyle=orthogonalEdgeStyle;rounded=0;orthogonalLoop=1;jettySize=auto;html=1;" edge="1" parent="1" source="jivDJLLt252KBazCutkm-16" target="jivDJLLt252KBazCutkm-18">
          <mxGeometry relative="1" as="geometry">
            <mxPoint x="340" y="820" as="targetPoint" />
          </mxGeometry>
        </mxCell>
        <mxCell id="jivDJLLt252KBazCutkm-16" value="Да" style="rounded=1;whiteSpace=wrap;html=1;" vertex="1" parent="1">
          <mxGeometry x="280" y="680" width="120" height="60" as="geometry" />
        </mxCell>
        <mxCell id="jivDJLLt252KBazCutkm-24" value="" style="edgeStyle=orthogonalEdgeStyle;rounded=0;orthogonalLoop=1;jettySize=auto;html=1;" edge="1" parent="1" source="jivDJLLt252KBazCutkm-18" target="jivDJLLt252KBazCutkm-23">
          <mxGeometry relative="1" as="geometry" />
        </mxCell>
        <mxCell id="jivDJLLt252KBazCutkm-18" value="Добавить его в результат" style="rounded=1;whiteSpace=wrap;html=1;" vertex="1" parent="1">
          <mxGeometry x="280" y="790" width="120" height="60" as="geometry" />
        </mxCell>
        <mxCell id="jivDJLLt252KBazCutkm-21" style="edgeStyle=orthogonalEdgeStyle;rounded=0;orthogonalLoop=1;jettySize=auto;html=1;" edge="1" parent="1" source="jivDJLLt252KBazCutkm-20" target="jivDJLLt252KBazCutkm-22">
          <mxGeometry relative="1" as="geometry">
            <mxPoint x="580" y="820" as="targetPoint" />
            <Array as="points">
              <mxPoint x="565" y="820" />
              <mxPoint x="565" y="821" />
            </Array>
          </mxGeometry>
        </mxCell>
        <mxCell id="jivDJLLt252KBazCutkm-20" value="нечего" style="rounded=1;whiteSpace=wrap;html=1;" vertex="1" parent="1">
          <mxGeometry x="430" y="790" width="120" height="60" as="geometry" />
        </mxCell>
        <mxCell id="jivDJLLt252KBazCutkm-22" value="конец" style="rounded=1;whiteSpace=wrap;html=1;" vertex="1" parent="1">
          <mxGeometry x="590" y="790" width="120" height="60" as="geometry" />
        </mxCell>
        <mxCell id="jivDJLLt252KBazCutkm-26" value="" style="edgeStyle=orthogonalEdgeStyle;rounded=0;orthogonalLoop=1;jettySize=auto;html=1;" edge="1" parent="1" source="jivDJLLt252KBazCutkm-23" target="jivDJLLt252KBazCutkm-25">
          <mxGeometry relative="1" as="geometry" />
        </mxCell>
        <mxCell id="jivDJLLt252KBazCutkm-23" value="вывести новый массив" style="whiteSpace=wrap;html=1;rounded=1;" vertex="1" parent="1">
          <mxGeometry x="280" y="880" width="120" height="60" as="geometry" />
        </mxCell>
        <mxCell id="jivDJLLt252KBazCutkm-25" value="конец" style="whiteSpace=wrap;html=1;rounded=1;" vertex="1" parent="1">
          <mxGeometry x="280" y="970" width="120" height="60" as="geometry" />
        </mxCell>
      </root>
    </mxGraphModel>
  </diagram>
</mxfile>
